<mxfile host="Electron" agent="Mozilla/5.0 (Macintosh; Intel Mac OS X 10_15_7) AppleWebKit/537.36 (KHTML, like Gecko) draw.io/28.2.8 Chrome/140.0.7339.240 Electron/38.4.0 Safari/537.36" version="28.2.8">
  <diagram id="L-ABCD56789" name="Kino ERM (Chen)">
    <mxGraphModel dx="1018" dy="748" grid="1" gridSize="10" guides="1" tooltips="1" connect="1" arrows="1" fold="1" page="1" pageScale="1" pageWidth="827" pageHeight="1169" math="0" shadow="0">
      <root>
        <mxCell id="0" />
        <mxCell id="1" parent="0" />
        <mxCell id="E1_Ort" value="Ort" style="shape=rectangle;perimeter=rectanglePerimeter;whiteSpace=wrap;html=1;align=center;" parent="1" vertex="1">
          <mxGeometry x="60" y="100" width="100" height="40" as="geometry" />
        </mxCell>
        <mxCell id="A1_Ort_ID" value="Ort_ID" style="shape=ellipse;perimeter=ellipsePerimeter;whiteSpace=wrap;html=1;align=center;fontStyle=4;" parent="1" vertex="1">
          <mxGeometry x="60" y="20" width="100" height="40" as="geometry" />
        </mxCell>
        <mxCell id="L1_Ort_ID" value="" style="endArrow=none;html=1;rounded=0;" parent="1" source="E1_Ort" target="A1_Ort_ID" edge="1">
          <mxGeometry relative="1" as="geometry" />
        </mxCell>
        <mxCell id="E2_Kino" value="Kino" style="shape=rectangle;perimeter=rectanglePerimeter;whiteSpace=wrap;html=1;align=center;" parent="1" vertex="1">
          <mxGeometry x="350" y="100" width="100" height="40" as="geometry" />
        </mxCell>
        <mxCell id="A2_Kino_ID" value="Kino_ID" style="shape=ellipse;perimeter=ellipsePerimeter;whiteSpace=wrap;html=1;align=center;fontStyle=4;" parent="1" vertex="1">
          <mxGeometry x="350" y="20" width="100" height="40" as="geometry" />
        </mxCell>
        <mxCell id="L2_Kino_ID" value="" style="endArrow=none;html=1;rounded=0;" parent="1" source="E2_Kino" target="A2_Kino_ID" edge="1">
          <mxGeometry relative="1" as="geometry" />
        </mxCell>
        <mxCell id="E3_Saal" value="Saal" style="shape=rectangle;perimeter=rectanglePerimeter;whiteSpace=wrap;html=1;align=center;" parent="1" vertex="1">
          <mxGeometry x="640" y="100" width="100" height="40" as="geometry" />
        </mxCell>
        <mxCell id="A3_Saal_ID" value="Saal_ID" style="shape=ellipse;perimeter=ellipsePerimeter;whiteSpace=wrap;html=1;align=center;fontStyle=4;" parent="1" vertex="1">
          <mxGeometry x="640" y="20" width="100" height="40" as="geometry" />
        </mxCell>
        <mxCell id="A3_Saal_Name" value="Name" style="shape=ellipse;perimeter=ellipsePerimeter;whiteSpace=wrap;html=1;align=center;" parent="1" vertex="1">
          <mxGeometry x="760" y="50" width="80" height="30" as="geometry" />
        </mxCell>
        <mxCell id="A3_Saal_Sitz" value="SitzplÃ¤tze" style="shape=ellipse;perimeter=ellipsePerimeter;whiteSpace=wrap;html=1;align=center;" parent="1" vertex="1">
          <mxGeometry x="760" y="100" width="80" height="30" as="geometry" />
        </mxCell>
        <mxCell id="L3_Saal_ID" value="" style="endArrow=none;html=1;rounded=0;" parent="1" source="E3_Saal" target="A3_Saal_ID" edge="1">
          <mxGeometry relative="1" as="geometry" />
        </mxCell>
        <mxCell id="L3_Saal_Name" value="" style="endArrow=none;html=1;rounded=0;" parent="1" source="E3_Saal" target="A3_Saal_Name" edge="1">
          <mxGeometry relative="1" as="geometry" />
        </mxCell>
        <mxCell id="L3_Saal_Sitz" value="" style="endArrow=none;html=1;rounded=0;" parent="1" source="E3_Saal" target="A3_Saal_Sitz" edge="1">
          <mxGeometry relative="1" as="geometry" />
        </mxCell>
        <mxCell id="E4_Film" value="Film" style="shape=rectangle;perimeter=rectanglePerimeter;whiteSpace=wrap;html=1;align=center;" parent="1" vertex="1">
          <mxGeometry x="640" y="440" width="100" height="40" as="geometry" />
        </mxCell>
        <mxCell id="A4_Film_ID" value="Film_ID" style="shape=ellipse;perimeter=ellipsePerimeter;whiteSpace=wrap;html=1;align=center;fontStyle=4;" parent="1" vertex="1">
          <mxGeometry x="640" y="500" width="100" height="40" as="geometry" />
        </mxCell>
        <mxCell id="L4_Film_ID" value="" style="endArrow=none;html=1;rounded=0;" parent="1" source="E4_Film" target="A4_Film_ID" edge="1">
          <mxGeometry relative="1" as="geometry" />
        </mxCell>
        <mxCell id="R1_hat_Kino" value="hat" style="shape=rhombus;perimeter=rhombusPerimeter;whiteSpace=wrap;html=1;align=center;" parent="1" vertex="1">
          <mxGeometry x="205" y="90" width="100" height="60" as="geometry" />
        </mxCell>
        <mxCell id="L_R1_Ort" value="1" style="edgeLabel;html=1;align=center;verticalAlign=middle;resizable=0;points=[];" parent="1" vertex="1" connectable="0">
          <mxGeometry x="175" y="105" as="geometry" />
        </mxCell>
        <mxCell id="L_R1_Kino" value="N" style="edgeLabel;html=1;align=center;verticalAlign=middle;resizable=0;points=[];" parent="1" vertex="1" connectable="0">
          <mxGeometry x="315" y="105" as="geometry" />
        </mxCell>
        <mxCell id="Edge_R1_Ort" value="" style="endArrow=none;html=1;rounded=0;entryX=0;entryY=0.5;exitX=1;exitY=0.5;" parent="1" source="E1_Ort" target="R1_hat_Kino" edge="1">
          <mxGeometry relative="1" as="geometry" />
        </mxCell>
        <mxCell id="Edge_R1_Kino" value="" style="endArrow=none;html=1;rounded=0;entryX=0;entryY=0.5;exitX=1;exitY=0.5;" parent="1" source="R1_hat_Kino" target="E2_Kino" edge="1">
          <mxGeometry relative="1" as="geometry" />
        </mxCell>
        <mxCell id="R2_hat_Saal" value="hat" style="shape=rhombus;perimeter=rhombusPerimeter;whiteSpace=wrap;html=1;align=center;" parent="1" vertex="1">
          <mxGeometry x="495" y="90" width="100" height="60" as="geometry" />
        </mxCell>
        <mxCell id="L_R2_Kino" value="1" style="edgeLabel;html=1;align=center;verticalAlign=middle;resizable=0;points=[];" parent="1" vertex="1" connectable="0">
          <mxGeometry x="465" y="105" as="geometry" />
        </mxCell>
        <mxCell id="L_R2_Saal" value="N" style="edgeLabel;html=1;align=center;verticalAlign=middle;resizable=0;points=[];" parent="1" vertex="1" connectable="0">
          <mxGeometry x="605" y="105" as="geometry" />
        </mxCell>
        <mxCell id="Edge_R2_Kino" value="" style="endArrow=none;html=1;rounded=0;entryX=0;entryY=0.5;exitX=1;exitY=0.5;" parent="1" source="E2_Kino" target="R2_hat_Saal" edge="1">
          <mxGeometry relative="1" as="geometry" />
        </mxCell>
        <mxCell id="Edge_R2_Saal" value="" style="endArrow=none;html=1;rounded=0;entryX=0;entryY=0.5;exitX=1;exitY=0.5;" parent="1" source="R2_hat_Saal" target="E3_Saal" edge="1">
          <mxGeometry relative="1" as="geometry" />
        </mxCell>
        <mxCell id="R3_wird_gezeigt" value="wird gezeigt" style="shape=rhombus;perimeter=rhombusPerimeter;whiteSpace=wrap;html=1;align=center;" parent="1" vertex="1">
          <mxGeometry x="620" y="260" width="140" height="80" as="geometry" />
        </mxCell>
        <mxCell id="A5_Datum_Uhrzeit" value="Datum_Uhrzeit" style="shape=ellipse;perimeter=ellipsePerimeter;whiteSpace=wrap;html=1;align=center;" parent="1" vertex="1">
          <mxGeometry x="780" y="280" width="100" height="40" as="geometry" />
        </mxCell>
        <mxCell id="L5_Datum" value="" style="endArrow=none;html=1;rounded=0;dashed=1;" parent="1" source="R3_wird_gezeigt" target="A5_Datum_Uhrzeit" edge="1">
          <mxGeometry relative="1" as="geometry" />
        </mxCell>
        <mxCell id="L_R3_Saal" value="N" style="edgeLabel;html=1;align=center;verticalAlign=middle;resizable=0;points=[];" parent="1" vertex="1" connectable="0">
          <mxGeometry x="675" y="150" as="geometry" />
        </mxCell>
        <mxCell id="L_R3_Film" value="M" style="edgeLabel;html=1;align=center;verticalAlign=middle;resizable=0;points=[];" parent="1" vertex="1" connectable="0">
          <mxGeometry x="675" y="420" as="geometry" />
        </mxCell>
        <mxCell id="Edge_R3_Saal" value="" style="endArrow=none;html=1;rounded=0;entryX=0.5;entryY=0;exitX=0.5;exitY=1;" parent="1" source="E3_Saal" target="R3_wird_gezeigt" edge="1">
          <mxGeometry relative="1" as="geometry">
            <mxPoint x="690" y="150" as="sourcePoint" />
            <mxPoint x="690" y="250" as="targetPoint" />
          </mxGeometry>
        </mxCell>
        <mxCell id="Edge_R3_Film" value="" style="endArrow=none;html=1;rounded=0;" parent="1" edge="1">
          <mxGeometry relative="1" as="geometry">
            <mxPoint x="690" y="340" as="sourcePoint" />
            <mxPoint x="690" y="440" as="targetPoint" />
          </mxGeometry>
        </mxCell>
      </root>
    </mxGraphModel>
  </diagram>
</mxfile>
